<svg xmlns="http://www.w3.org/2000/svg" xmlns:xlink="http://www.w3.org/1999/xlink" width="38" height="18" viewBox="0 0 38 18">
    <defs>
        <path id="a" d="M8.436.005H0V38H16.873V.005z"/>
    </defs>
    <g fill="none" fill-rule="evenodd">
        <path fill="#C05275" d="M14.5 6.5a2.5 2.5 0 1 1 0 5 2.5 2.5 0 0 1 0-5"/>
        <g transform="rotate(-90 8.75 8.75)">
            <mask id="b" fill="#fff">
                <use xlink:href="#a"/>
            </mask>
            <path fill="#C05275" d="M8.674 22.166a.292.292 0 0 0-.09-.015h-.296a.292.292 0 0 0-.09.015C4.148 22.04.89 18.686.89 14.581c0-4.186 3.385-7.591 7.546-7.591 4.162 0 7.547 3.405 7.547 7.591 0 4.106-3.257 7.458-7.309 7.585m8.199-7.585c0-4.529-3.546-8.24-7.992-8.474V.303a.297.297 0 0 0-.296-.298h-.297a.297.297 0 0 0-.296.298v5.804C3.546 6.34 0 10.052 0 14.581c0 4.53 3.546 8.24 7.992 8.474v14.647c0 .164.132.298.296.298h.297a.297.297 0 0 0 .296-.298V23.055c4.446-.233 7.992-3.945 7.992-8.474" mask="url(#b)"/>
        </g>
    </g>
</svg>
