<svg xmlns="http://www.w3.org/2000/svg" width="74" height="231" viewBox="0 0 74 231">
    <g fill="#A6284F" fill-rule="evenodd">
        <path d="M37.377 63.995a1.5 1.5 0 0 0 1.618-1.618 1.508 1.508 0 0 0-1.372-1.372 1.502 1.502 0 0 0-1.618 1.618 1.508 1.508 0 0 0 1.372 1.372M50.672 65c1.066 0 1.936-.461 2.588-1.372 1.054-1.473 1.636-3.021 1.727-4.601.09-1.546-.286-3.158-1.118-4.792-.816-1.604-2.02-2.331-3.697-2.225-.522.033-1.095.05-1.753.05-.563 0-1.135-.012-1.69-.023-.291-.006-.584-.012-.875-.016h-.024c-.32 0-.475.084-.64.346-1.233 1.967-2.5 3.96-3.724 5.885l-.06.093-1.122 1.766-.263.414a.135.135 0 0 0 .154.2c.655-.205 1.308-.412 1.962-.62.835-.264 1.672-.529 2.509-.791l.059-.02c.204-.064.44-.139.685-.127.256.013.644.221.698.531a.973.973 0 0 1-.265.8c-.164.158-.372.217-.556.268l-.006.002-.105.03c-.65.206-1.278.417-1.884.621l-.006.002c-.902.303-1.834.617-2.822.905a.774.774 0 0 0-.065.022.135.135 0 0 0-.082.115c-.004.043-.003.1-.003.15 0 .057 0 .121-.003.19a.137.137 0 0 0 .104.139l.088.019c1.417.286 2.814.584 4.164.873 1.697.362 3.45.736 5.232 1.086.272.053.539.08.793.08M29.23 52c-.026 0-.054 0-.082.003-.667.035-1.367.053-2.14.053A78.924 78.924 0 0 1 24.245 52c-.963 0-1.78.412-2.425 1.226A8.477 8.477 0 0 0 20 58.533a8.618 8.618 0 0 0 1.845 5.273C22.275 64.351 23 65 23.995 65h.001c.085 0 .17-.005.257-.014 1.251-.136 2.518-.384 3.744-.623l.187-.037a160.62 160.62 0 0 0 3.68-.775c.861-.188 1.751-.383 2.69-.577a.136.136 0 0 0 .108-.121c.013-.156-.002-.278-.046-.362a.245.245 0 0 0-.159-.127c-.63-.198-1.194-.396-1.743-.59-.534-.187-1.085-.381-1.695-.573-.107-.034-.214-.067-.325-.1-.415-.127-.844-.258-1.251-.447-.237-.11-.343-.356-.429-.553l-.002-.005-.038-.087a.469.469 0 0 1 .222-.616l.068-.033c.16-.08.344-.169.557-.169h.022c.232.007.444.088.633.161.071.027.14.054.204.074l4.145 1.312a.134.134 0 0 0 .147-.047.136.136 0 0 0 .007-.155l-.052-.082-.981-1.556-.16-.252c-1.303-2.068-2.652-4.206-3.97-6.314-.158-.251-.3-.332-.586-.332M38.165 58.829a.129.129 0 0 0 .236.053c.188-.288.33-.576.518-.865l.007-.012a389.29 389.29 0 0 0 2.098-3.242c.339-.532.676-1.08 1.002-1.61a75.338 75.338 0 0 1 1.681-2.646c.396-.586.308-.916.208-1.113-.31-.61-.662-1.231-1.135-1.65-.984-.868-2.22-1.365-4.006-1.61A14.01 14.01 0 0 0 36.886 46c-1.493 0-2.85.263-4.15.805-1.164.485-1.92 1.082-2.376 1.878-.414.723-.467 1.202-.18 1.654.992 1.573 2.009 3.168 2.992 4.71l.021.033c.755 1.184 1.536 2.408 2.309 3.628.048.075.09.15.126.221.023.045-.024.071.025.071a.128.128 0 0 0 .129-.128c0-.446.004-.912.009-1.323a71.63 71.63 0 0 0-.006-2.65c-.006-.228.171-.44.342-.615.27-.276.695-.395.856-.395.246.002 1.164.233 1.184.936a53.446 53.446 0 0 1-.01 3.685c-.006.128-.003.232.008.319M39 69.537v.005l.012.33a.13.13 0 0 0 .044.093.136.136 0 0 0 .092.035h.007c2.413-.121 4.255-.453 5.97-1.077 1.668-.607 3.201-1.494 4.826-2.792a.132.132 0 0 0 .045-.133.134.134 0 0 0-.102-.099L47 65.294l-.02-.004c-1.217-.254-2.475-.516-3.468-.726-.375-.08-.753-.162-1.118-.242h-.005c-.486-.107-.986-.217-1.484-.32a.136.136 0 0 0-.143.06.13.13 0 0 0 .008.151c.123.152.248.301.381.459l.005.006.174.206c.134.16.273.322.407.479l.006.008c.345.402.7.818 1.022 1.255.152.208.126.467.106.675l-.005.053a.503.503 0 0 1-.582.448l-.025-.004c-.174-.025-.371-.053-.561-.116-.184-.062-.284-.208-.358-.314a1.284 1.284 0 0 0-.052-.072c-.336-.401-.654-.696-.992-1.008-.293-.271-.597-.552-.903-.903a.138.138 0 0 0-.134-.043.498.498 0 0 0-.177.068.126.126 0 0 0-.035.037c-.053.082-.052.238-.03.582l.015.226c.036.763.016 1.365-.005 2.003A37.63 37.63 0 0 0 39 69.537M29.91 68.922c1.707.608 3.585.95 5.914 1.078h.007a.13.13 0 0 0 .13-.13c.005-.561.013-1.043.021-1.512.015-.858.03-1.67.005-2.748a.131.131 0 0 0-.034-.085.636.636 0 0 0-.137-.11.13.13 0 0 0-.123-.007.388.388 0 0 0-.076.045 13.242 13.242 0 0 1-.915.947c-.316.307-.615.595-.933.982-.182.221-.456.556-.85.556a.763.763 0 0 1-.5-.2c-.336-.285-.063-1.05.123-1.299.342-.459.713-.903 1.071-1.334l.003-.003c.241-.29.49-.59.728-.89a.132.132 0 0 0 .009-.15.132.132 0 0 0-.14-.059c-1.44.314-2.899.643-4.31.961l-1.861.42c-.713.16-1.322.262-1.912.361-.325.055-.662.112-1.023.18a.131.131 0 0 0-.058.23c1.559 1.253 3.148 2.158 4.861 2.767M1.984 59.626C14.862 52.731 23.25 46.174 27.625 39.58c4.279-6.446 6.387-12.08 9.022-24.117L37 12.108l-19.01-.905c.564-1.226 1.095-2.68 1.356-3.587.367-1.273 1.24-4.588 1.251-4.634l.387-1.664L14.432 1l-.09 1.378c-.032.238-.682 4.24-1.152 5.687-1.52 4.676-2.436 6.665-2.848 7.435-.06.113-.08.172-.086.196-.027.085-.2.455-.395.823l-.71 1.355 1.504-.279c.375-.068.834-.148.993-.166.054-.005 5.519-.54 11.343-.278 1.234.056 4.103.258 6.02.397-.493 2.576-1.649 7.093-2.967 10.389-1.049-1.48-1.799-2.513-2.232-3.08-.92-1.205-3.898-4.446-4.235-4.812l-.613-.666-6.582 2.068 2.03 1.696c1.6 1.342 4.563 3.889 5.508 4.92.9.98 3.102 4.038 3.982 5.271-.139.32-.267.642-.392.957-.492 1.234-1.044 2.62-2.388 4.555a513.95 513.95 0 0 0-3.487-4.325c-1.035-1.253-4.27-4.234-4.406-4.36l-.615-.568-6.805 2.235 2.341 1.66c.438.311 4.314 3.078 5.418 4.112 1.087 1.02 3.659 3.971 4.776 5.266C14.548 47.149 7.759 53.234.635 56.78L0 57.096 1.286 60l.698-.374zM48.226 18.239c1.273.08 2.791.174 3.514.217.917.053 2.793.058 4.426.05-.79 2.222-1.95 5.53-2.386 7.003-.353 1.189-.923 3.426-1.438 5.5-1.367-3.848-2.823-8.518-4.116-12.77m-10.007-8.233c3.962 16.246 9.951 26.154 14.727 32.97 8.618 12.298 16.808 19.837 16.885 19.905L71.093 64 73 61.215l-.823-.828c-.102-.102-10.195-10.28-15.641-20.94.553-1.948 2.723-9.537 3.603-12.074 1.175-3.385 5.13-13.06 5.302-13.48l.883-2.156-2.335.173c-.118.009-11.585.832-17.624.03-.295-.748-.813-2.245-1.253-3.916-.444-1.682-.625-6.3-.627-6.347L44.422 0 36 1.59l.405 1.504c.012.044 1.367 5.077 1.814 6.912M73.058 193.03c-2.088-4.49-8.508-32.253-12.477-57.986-4.286-27.788-6.083-47.16-5.204-56.1 1.231-.076 5.746-.332 7.805-.335 4.62-.015 8.24.193 8.392.202l1.257.071-.002-6.877-.57.089c-.046.007-4.914.71-35.875.71-29.931 0-34.506-.68-34.685-.71L1.13 72l-.08 6.26-.122 1.659 1.654-.48c.283-.051 2.46-.367 13.273-.37.863 0 1.999.067 2.638.116.492 4.623 1.37 20.76-4.12 56.359-4.125 26.743-11.536 54.524-13.432 58.602L0 196.172l2.132 1.129.997-2.165c.818-1.776 20.044-44.252 23.843-115.934l5.183-.019 3.357 150.13c.031.428.028.568.026.702-.002.126-.005.243.014.514l.032.471 3.342-.07 2.795-151.75 5.247-.1c3.026 56.325 16.436 98.73 23.903 114.94l.997 2.164L74 195.056l-.942-2.026z"/>
    </g>
</svg>
